Coordinates
version=1
nRows=16
nColumns=36
inDegrees=yes

Units are S.I. units (second, meters, Newtons, ...)
If the header above contains a line with 'inDegrees', this indicates whether rotational values are in degrees (yes) or radians (no).

endheader
time	pelvis_tilt	pelvis_list	pelvis_rotation	pelvis_tx	pelvis_ty	pelvis_tz	hip_flexion_r	hip_adduction_r	hip_rotation_r	knee_angle_r	knee_angle_r_beta	ankle_angle_r	subtalar_angle_r	mtp_angle_r	hip_flexion_l	hip_adduction_l	hip_rotation_l	knee_angle_l	knee_angle_l_beta	ankle_angle_l	subtalar_angle_l	mtp_angle_l	lumbar_extension	lumbar_bending	lumbar_rotation	arm_flex_r	arm_add_r	arm_rot_r	elbow_flex_r	pro_sup_r	arm_flex_l	arm_add_l	arm_rot_l	elbow_flex_l	pro_sup_l
      0.00000000	     -8.23288264	      1.20831707	     -8.71146580	      0.90386626	      0.99074063	      0.11772880	      7.02399418	     -7.59726934	     -1.00111051	      0.42968260	      0.00749938	     -0.03548686	    -15.19347164	     -6.42419752	      6.09719965	     -9.29531221	      0.80951857	      0.44153886	      0.00770631	      7.00330164	     -2.46058782	     -6.42419752	      6.55042458	     -0.29426290	      0.83559760	     41.25121516	      3.18000851	     61.41068531	    118.61677136	     76.60961726	     30.48367809	     11.37083045	     68.71784019	    106.68254114	     93.00045811
      0.01666670	     -8.04861737	      2.29782223	    -10.35279814	      0.91163753	      0.99254681	      0.12360456	      7.14654986	     -8.73890653	      0.51483206	      0.48045266	      0.00838548	      0.84114525	    -13.37349701	     -6.44488670	      5.66296075	     -8.59479711	      0.47073087	      0.67362236	      0.01175693	      6.53551647	     -3.30730237	     -6.44488670	      7.15239768	     -1.08241472	      3.85580893	     42.20512596	      0.09641852	     70.42259102	    125.28618915	     79.27164685	     30.27695671	      8.97994527	     68.24365071	    112.84907450	     94.58370405
      0.03333330	     -8.25965074	      1.83723396	    -10.10282656	      0.90886767	      0.99195216	      0.12015925	      7.53004243	     -8.20616435	      0.57287135	      0.74992813	      0.01308871	      0.73302455	    -12.89316284	     -6.61581990	      6.17068274	     -9.17366706	      1.36810138	      1.52640317	      0.02664076	      6.08213706	     -3.76563296	     -6.61581990	      7.29716409	     -0.09913574	      0.94126796	     43.09558207	      2.76862889	     71.75989173	    124.31502851	     98.96849653	     29.10976825	      6.76923614	     65.94851281	    116.33873133	    110.30850615
      0.05000000	     -8.46198408	      1.76903376	     -9.60023260	      0.90886372	      0.99126678	      0.11976184	      7.70436231	     -8.25998707	     -0.17934700	      0.76400325	      0.01333437	      0.70993617	    -12.05410555	     -7.16009238	      6.93663217	     -9.30271650	      1.46544509	      2.39181744	      0.04174509	      5.78034656	     -3.69823129	     -7.16009238	      7.48556188	     -0.30223570	      0.28099677	     42.76510427	      3.22642338	     71.85590526	    124.47038287	    103.16034760	     30.21192475	      6.26836888	     66.44461642	    116.59236072	    111.61046559
      0.06666670	     -8.53972860	      1.66245630	     -9.28231996	      0.91295703	      0.99412438	      0.12263782	      7.63904758	     -8.18042066	     -0.58054032	      0.80435401	      0.01403863	      0.92012312	    -11.72188503	     -7.16651490	      7.20091915	     -9.50552082	      1.79960730	      2.69726911	      0.04707623	      5.62417586	     -3.56038039	     -7.16651490	      7.66427754	     -0.33564443	     -0.24678416	     42.16173750	      3.76357211	     72.18394661	    123.85290100	    103.44136096	     30.59268660	      5.72519823	     66.51152227	    116.75841651	    111.33329074
      0.08333330	     -8.71754570	      1.61595787	     -9.07875710	      0.91251444	      0.99368026	      0.12258010	      7.65168176	     -8.12859812	     -1.21317325	      0.81058654	      0.01414740	      1.20786489	    -11.27523900	     -7.31804930	      7.41558717	     -9.66222033	      1.81182537	      2.78014891	      0.04852275	      5.48994466	     -3.17513447	     -7.31804930	      8.06995394	     -0.21434844	     -0.71435280	     41.81566460	      4.33339960	     72.39934184	    123.23967383	    104.20431874	     30.54141894	      5.19634007	     66.19415936	    117.30040635	    110.10034917
      0.10000000	     -8.82621617	      1.65938282	     -8.86445043	      0.91235124	      0.99358033	      0.12197716	      7.57627204	     -8.18620093	     -1.68993777	      0.78579171	      0.01371465	      1.55502351	    -11.07767345	     -7.39672232	      7.58080953	     -9.67457868	      1.93524028	      2.87928837	      0.05025306	      5.45222649	     -2.81637416	     -7.39672232	      8.34054322	     -0.26393632	     -1.04772261	     41.61505230	      4.71265573	     72.35150652	    122.88596103	    103.90448168	     30.87641928	      4.92574995	     66.12211324	    117.63427907	    109.38371741
      0.11666670	     -8.93824634	      1.76148819	     -8.70678903	      0.90726795	      0.99296370	      0.11856500	      7.56666257	     -8.27296213	     -1.80631975	      0.72060495	      0.01257693	      1.79619254	    -11.26976743	     -7.39717742	      7.80227926	     -9.57537892	      2.21163193	      2.92411359	      0.05103541	      5.40608711	     -2.53604956	     -7.39717742	      8.44848140	     -0.32926797	     -1.01712832	     41.73543477	      4.70929595	     72.21922969	    122.81833439	    103.87555719	     31.27254560	      4.91063406	     66.02270340	    117.78176951	    109.35108219
      0.13333330	     -9.00477284	      1.79644618	     -8.45546106	      0.91216343	      0.99327294	      0.12155832	      7.44693976	     -8.29046811	     -2.04767055	      0.66919535	      0.01167966	      2.03598078	    -11.55890478	     -7.39783527	      7.95221358	     -9.53309344	      2.40305891	      2.95377082	      0.05155303	      5.40347747	     -2.22519517	     -7.39783527	      8.59525881	     -0.39204939	     -1.08598336	     41.48948150	      4.69726384	     71.96757338	    122.73678310	    103.78901698	     31.29221864	      4.65169360	     66.18931785	    117.88115775	    109.28336854
      0.15000000	     -9.14683612	      1.82920965	     -8.26401214	      0.91204438	      0.99284947	      0.12173634	      7.46322593	     -8.29009431	     -2.19815341	      0.58871394	      0.01027500	      2.20643725	    -11.77720385	     -7.45577402	      8.11014542	     -9.54418263	      2.42202966	      2.94229683	      0.05135277	      5.41033669	     -1.73516714	     -7.45577402	      8.91442349	     -0.50929241	     -1.21002167	     41.04837613	      4.81271517	     71.48095111	    122.63454552	    102.00887046	     31.62013654	      4.73790658	     66.77107414	    118.01092674	    107.71283305
      0.16666670	     -9.21397741	      1.83333874	     -8.14886615	      0.91189127	      0.99258133	      0.12121279	      7.42251254	     -8.25507699	     -2.24323996	      0.51539228	      0.00899529	      2.37297953	    -12.06851886	     -7.48160826	      8.13690793	     -9.55885550	      2.45468779	      2.83419716	      0.04946607	      5.34497131	     -1.54411509	     -7.48160826	      9.04807389	     -0.57027209	     -1.15786644	     40.94941550	      4.83115215	     71.25643276	    122.66076549	    101.54922157	     31.95730876	      4.92999233	     67.27247427	    117.96029583	    107.30275436
      0.18333330	     -9.21877005	      1.86654155	     -8.03177631	      0.91230969	      0.99236498	      0.11585441	      7.33845234	     -8.32298025	     -2.31136629	      0.47023548	      0.00820716	      2.58093774	    -12.18877732	     -7.48166031	      8.10879886	     -9.49305115	      2.55165633	      2.77781227	      0.04848197	      5.28195093	     -1.46981751	     -7.48166031	      9.09271706	     -0.45999324	     -1.21284980	     40.96224330	      4.65826321	     71.26180827	    122.71499447	    101.54409241	     31.79323004	      4.75259104	     67.42278494	    117.78768522	    107.30909829
      0.20000000	     -9.25831341	      1.89265831	     -7.99963892	      0.91253554	      0.98995850	      0.11547128	      7.30538207	     -8.36289383	     -2.31579285	      0.42123837	      0.00735200	      2.68579455	    -12.23127706	     -7.48167685	      8.11783764	     -9.45376024	      2.60539362	      2.75326649	      0.04805357	      5.24745212	     -1.42927054	     -7.48167685	      9.12002663	     -0.39733759	     -1.26206831	     41.03405419	      4.61276672	     71.21191961	    122.76700754	    101.53910783	     31.83861770	      4.79569784	     67.41382587	    117.76351419	    107.30590748
      0.21666670	     -9.15116604	      1.86779399	     -7.69938468	      0.91227514	      0.98982272	      0.11553684	      7.06912597	     -8.41736758	     -2.59333023	      0.40873153	      0.00713371	      3.11239789	    -12.20738125	     -7.48415517	      8.04616130	     -9.40965240	      3.11821574	      2.68360602	      0.04683776	      5.06604317	     -1.55423720	     -7.48415517	      9.02545008	     -0.59223016	     -1.16900116	     41.14778155	      4.14788152	     70.76344797	    123.44469214	    100.49371097	     32.19247161	      5.04829637	     67.83004180	    117.09700251	    106.60453451
      0.23333330	     -9.00330896	      1.87830606	     -7.55272099	      0.91207908	      0.99019291	      0.11508492	      6.83636590	     -8.49482547	     -2.66969110	      0.38213055	      0.00666944	      3.29493534	    -12.28257444	     -7.48589994	      7.93172194	     -9.33970565	      3.35726832	      2.66501312	      0.04651325	      5.12574790	     -1.46817748	     -7.48589994	      8.81753400	     -0.62973923	     -1.32048383	     41.38467034	      4.15189682	     70.74938475	    123.47081978	     98.38703753	     32.45249034	      5.11349466	     67.97659524	    116.87618121	    103.70442995
      0.25000000	     -9.01431819	      1.89052648	     -7.42304199	      0.91160042	      0.99224599	      0.11547667	      6.78518898	     -8.53871808	     -2.75707442	      0.37750532	      0.00658871	      3.58570846	    -12.16304720	     -7.48694855	      8.00184589	     -9.29299966	      3.60452628	      2.68279787	      0.04682366	      5.21045257	     -1.35525087	     -7.48694855	      8.74505665	     -0.64938093	     -1.47292432	     41.45897250	      4.18348133	     70.81778010	    123.41515413	    100.82016948	     32.46956610	      5.12331839	     67.93173607	    116.91239831	    106.49253890
